<svg width="20" height="21" viewBox="0 0 20 21" fill="none" xmlns="http://www.w3.org/2000/svg">
<path d="M9.99672 4.5019C10.3459 4.5019 10.6225 4.21863 10.6225 3.87607V1.95908C10.6225 1.61652 10.3459 1.33325 9.99672 1.33325C9.65417 1.33325 9.37746 1.61652 9.37746 1.95908V3.87607C9.37746 4.21863 9.65417 4.5019 9.99672 4.5019ZM14.2326 6.26738C14.4763 6.50454 14.8715 6.51771 15.1219 6.26738L16.479 4.91033C16.7227 4.66659 16.7161 4.26474 16.479 4.02101C16.2352 3.78385 15.8399 3.77726 15.5962 4.02101L14.2326 5.38464C13.9888 5.62838 13.9954 6.02364 14.2326 6.26738ZM15.9848 10.5033C15.9848 10.8458 16.2682 11.1224 16.6107 11.1224H18.5211C18.8636 11.1224 19.1469 10.8458 19.1469 10.5033C19.1469 10.1606 18.8636 9.87739 18.5211 9.87739H16.6107C16.2682 9.87739 15.9848 10.1606 15.9848 10.5033ZM14.2326 14.739C13.9954 14.9828 13.9888 15.3847 14.2326 15.6218L15.5962 16.9854C15.8399 17.2292 16.2352 17.216 16.479 16.9789C16.7161 16.7351 16.7227 16.3399 16.479 16.1027L15.1153 14.739C14.8715 14.5019 14.4763 14.5019 14.2326 14.739ZM9.99672 16.5045C9.65417 16.5045 9.37746 16.7812 9.37746 17.1238V19.0408C9.37746 19.3899 9.65417 19.6666 9.99672 19.6666C10.3459 19.6666 10.6225 19.3899 10.6225 19.0408V17.1238C10.6225 16.7812 10.3459 16.5045 9.99672 16.5045ZM5.76746 14.739C5.52371 14.5019 5.12187 14.5019 4.87813 14.739L3.52108 16.0961C3.27733 16.3333 3.28392 16.7285 3.51449 16.9723C3.75823 17.2095 4.16007 17.2226 4.39723 16.9789L5.76087 15.6218C5.99802 15.3847 5.99802 14.9828 5.76746 14.739ZM4.00856 10.5033C4.00856 10.1606 3.73188 9.87739 3.38933 9.87739H1.47891C1.13636 9.87739 0.853088 10.1606 0.853088 10.5033C0.853088 10.8458 1.13636 11.1224 1.47891 11.1224H3.38933C3.73188 11.1224 4.00856 10.8458 4.00856 10.5033ZM5.76087 6.26738C5.99802 6.03023 5.99802 5.62179 5.76746 5.38464L4.40382 4.02101C4.17325 3.79044 3.7714 3.78385 3.52766 4.02101C3.29051 4.26474 3.28392 4.66659 3.52108 4.90374L4.87813 6.26738C5.12187 6.51112 5.51712 6.50454 5.76087 6.26738Z" fill="#FFD166"/>
<path d="M9.9901 14.739C12.3287 14.739 14.2326 12.8417 14.2326 10.5032C14.2326 8.1646 12.3287 6.26074 9.9901 6.26074C7.65149 6.26074 5.75427 8.1646 5.75427 10.5032C5.75427 12.8417 7.65149 14.739 9.9901 14.739Z" fill="url(#paint0_linear_1_2071)"/>
<defs>
<linearGradient id="paint0_linear_1_2071" x1="9.99341" y1="6.26074" x2="9.99341" y2="14.739" gradientUnits="userSpaceOnUse">
<stop stop-color="#FFD166"/>
<stop offset="1" stop-color="#FC6E31"/>
</linearGradient>
</defs>
</svg>
